<svg pointer-events="none" class="leaflet-zoom-animated" width="276" height="240" viewBox="-23 -20 276 240" style="transform: translate3d(-22.853px, -19.7489px, 0px) scale(1);"><g><path class="leaflet-interactive" stroke="#18a0fb" stroke-opacity="1" stroke-width="2" stroke-linecap="round" stroke-linejoin="round" fill="#18a0fb" fill-opacity="1" fill-rule="evenodd" d="M145 61L142 56L139 58L141 56L139 53L136 55L132 47L131 48L127 45L120 43L121 41L118 41L117 36L112 32L111 33L106 29L105 30L108 32L103 29L101 32L100 30L103 29L102 26L100 28L99 23L96 22L93 27L66 41L44 99L45 134L94 179L122 140L131 137L134 139L137 138L144 141L149 137L158 136L163 130L170 125L168 120L173 118L173 112L168 107L173 110L176 114L178 113L178 110L180 110L181 112L182 111L180 109L184 111L187 109L183 106L185 106L184 102L181 102L179 104L178 103L180 102L175 102L183 101L182 95L179 92L177 86L171 81L163 83L162 80L164 79L165 81L163 77L169 75L166 75L166 73L169 73L164 71L168 70L162 69L161 68L165 68L163 66L158 67L157 66L161 65L151 62L155 62L153 60L146 59L152 64L150 65z"></path></g></svg>